<svg width="21" height="14" fill="none" xmlns="http://www.w3.org/2000/svg"><path d="M.944 13.298V.245h4.572C7.1.245 8.301.55 9.12 1.16c.819.603 1.228 1.49 1.228 2.662 0 .64-.164 1.204-.493 1.694-.329.485-.786.84-1.372 1.067.67.168 1.196.505 1.578 1.013.389.508.583 1.13.583 1.865 0 1.255-.4 2.205-1.201 2.85-.801.646-1.943.975-3.425.987H.944zm2.69-5.684v3.523h2.303c.634 0 1.127-.149 1.48-.448.358-.305.538-.723.538-1.255 0-1.195-.62-1.802-1.856-1.82H3.634zm0-1.9h1.99C6.98 5.69 7.659 5.149 7.659 4.09c0-.592-.174-1.016-.52-1.273-.341-.263-.882-.394-1.623-.394H3.634v3.29zm13.33 7.763c-1.422 0-2.582-.436-3.478-1.309-.89-.872-1.336-2.035-1.336-3.487V8.43c0-.974.188-1.844.565-2.609.376-.77.908-1.362 1.595-1.775.694-.418 1.483-.627 2.367-.627 1.327 0 2.37.418 3.129 1.255.765.837 1.147 2.023 1.147 3.559V9.29h-6.176c.083.633.334 1.141.753 1.524.424.382.959.573 1.604.573.998 0 1.778-.361 2.34-1.084l1.273 1.425c-.388.55-.914.98-1.578 1.291-.663.305-1.398.457-2.205.457zm-.296-7.96c-.514 0-.932.173-1.255.52-.317.346-.52.842-.61 1.488h3.604v-.207c-.012-.573-.167-1.016-.466-1.326-.299-.317-.723-.476-1.273-.476z" fill="#000E22"/></svg>