<svg width="20" height="19" fill="none" xmlns="http://www.w3.org/2000/svg"><path d="M1.137 4.837c0 1.57.524 2.703 1.558 3.368.847.547 1.829.629 2.34.629.123 0 .223-.007.293-.01 0 0-.162 1.055.62 2.097h-.036c-1.355 0-5.774.283-5.774 3.918 0 3.695 4.059 3.883 4.873 3.883.064 0 .102-.002.102-.002.009 0 .066.002.166.002.523 0 1.873-.065 3.127-.675 1.627-.789 2.452-2.165 2.452-4.084 0-1.854-1.257-2.958-2.174-3.765-.56-.493-1.045-.918-1.045-1.33 0-.421.354-.737.8-1.138.725-.646 1.408-1.568 1.408-3.31 0-1.532-.198-2.561-1.423-3.214.127-.065.58-.112.802-.144C9.89.972 10.86.87 10.86.327V.223H6.026c-.049.002-4.89.181-4.89 4.614zM8.94 14.31c.093 1.478-1.172 2.568-3.071 2.705-1.929.142-3.516-.726-3.608-2.203-.046-.71.267-1.404.877-1.958.62-.56 1.47-.907 2.395-.975.109-.007.217-.013.325-.013 1.786.001 2.995 1.05 3.082 2.444zM7.678 3.824c.474 1.67-.242 3.412-1.383 3.735a1.49 1.49 0 01-.404.054c-1.045 0-2.08-1.057-2.465-2.515-.214-.815-.196-1.532.05-2.22.24-.678.675-1.133 1.222-1.287.131-.037.267-.056.405-.056 1.261 0 2.072.524 2.575 2.29zm8.186 3.547V4.217H13.76v3.154h-3.153v2.102h3.153v3.153h2.103V9.473h3.153V7.37h-3.153z" fill="#000E22"/></svg>