<svg width="21" height="16" fill="none" xmlns="http://www.w3.org/2000/svg"><path d="M18.335 4.103c.014.17.014.34.014.509 0 5.184-4.087 11.159-11.557 11.159-2.3 0-4.439-.644-6.238-1.762.327.036.642.049.982.049a8.325 8.325 0 005.043-1.676 4.165 4.165 0 01-2.35-.772A3.938 3.938 0 012.78 9.663c.251.036.503.06.767.06.364 0 .73-.048 1.07-.133a4.088 4.088 0 01-2.34-1.362A3.838 3.838 0 011.36 5.74v-.048a4.21 4.21 0 001.835.497 3.97 3.97 0 01-1.33-1.413 3.809 3.809 0 01.072-3.83 11.487 11.487 0 003.736 2.91 11.877 11.877 0 004.64 1.193 4.31 4.31 0 01-.101-.899c0-.515.104-1.025.309-1.5.204-.477.503-.91.88-1.273a4.073 4.073 0 011.318-.85A4.186 4.186 0 0114.274.23a4.12 4.12 0 012.967 1.238A8.2 8.2 0 0019.82.521a3.942 3.942 0 01-1.786 2.161 8.37 8.37 0 002.338-.607 8.56 8.56 0 01-2.035 2.028z" fill="#000E22"/></svg>